HIERARCHY
ROOT root
{
	OFFSET	0	13.1	24.9
	CHANNELS 6  Xposition Yposition Zposition Xrotation Yrotation Zrotation
	JOINT spine_1
	{
		OFFSET	0	9.99999	0
		CHANNELS 3  Xrotation Yrotation Zrotation
		JOINT spine_2
		{
			OFFSET	0	112	-10
			CHANNELS 3  Xrotation Yrotation Zrotation
			JOINT spine_3
			{
				OFFSET	0	206.5	19.3
				CHANNELS 3  Xrotation Yrotation Zrotation
				JOINT spine_4
				{
					OFFSET	0	110.4	14.6
					CHANNELS 3  Xrotation Yrotation Zrotation
					JOINT neck_1
					{
						OFFSET	0	71.8	-50.3
						CHANNELS 3  Xrotation Yrotation Zrotation
						JOINT neck_2
						{
							OFFSET	0	86.2	-25.8
							CHANNELS 3  Xrotation Yrotation Zrotation
							JOINT head_ee
							{
								OFFSET	0	179.8	-8.7
								CHANNELS 3  Xrotation Yrotation Zrotation
								End Site
								{
									OFFSET	1	0	0
								}
							}
						}
					}
					JOINT left_clavicle
					{
						OFFSET	-43.2	22.4	-70.8
						CHANNELS 3  Xrotation Yrotation Zrotation
						JOINT left_shoulder
						{
							OFFSET	-93.9	-5.79999	48.7
							CHANNELS 3  Xrotation Yrotation Zrotation
							JOINT left_elbow
							{
								OFFSET	-291.4	-30.8	15.2
								CHANNELS 3  Xrotation Yrotation Zrotation
								JOINT left_lowarm_twist
								{
									OFFSET	-110.7	-3.89999	13.6
									CHANNELS 3  Xrotation Yrotation Zrotation
									JOINT left_hand
									{
										OFFSET	-110.7	-3.89999	13.6
										CHANNELS 3  Xrotation Yrotation Zrotation
										JOINT left_ee
										{
											OFFSET	-80.8	-5.10001	12.1
											CHANNELS 3  Xrotation Yrotation Zrotation
											End Site
											{
												OFFSET	1	0	0
											}
										}
									}
								}
							}
						}
					}
					JOINT right_clavicle
					{
						OFFSET	43.2	22.4	-70.8
						CHANNELS 3  Xrotation Yrotation Zrotation
						JOINT right_shoulder
						{
							OFFSET	93.9	-5.79999	48.7
							CHANNELS 3  Xrotation Yrotation Zrotation
							JOINT right_elbow
							{
								OFFSET	291.4	-30.8	15.2
								CHANNELS 3  Xrotation Yrotation Zrotation
								JOINT right_lowarm_twist
								{
									OFFSET	110.7	-3.89999	13.6
									CHANNELS 3  Xrotation Yrotation Zrotation
									JOINT right_hand
									{
										OFFSET	110.7	-3.89999	13.6
										CHANNELS 3  Xrotation Yrotation Zrotation
										JOINT right_ee
										{
											OFFSET	80.8	-5.10001	12.1
											CHANNELS 3  Xrotation Yrotation Zrotation
											End Site
											{
												OFFSET	1	0	0
											}
										}
									}
								}
							}
						}
					}
				}
			}
		}
	}
	JOINT left_hip
	{
		OFFSET	-82.8	-127.5	0.300001
		CHANNELS 3  Xrotation Yrotation Zrotation
		JOINT left_knee
		{
			OFFSET	-28.2	-396.7	2.2
			CHANNELS 3  Xrotation Yrotation Zrotation
			JOINT left_ankle
			{
				OFFSET	-11.7	-411.3	35.4
				CHANNELS 3  Xrotation Yrotation Zrotation
				JOINT left_toes
				{
					OFFSET	0	-60	-88.6
					CHANNELS 3  Xrotation Yrotation Zrotation
					JOINT left_foot_ee
					{
						OFFSET	-22.5	-16.5	-42.2
						CHANNELS 3  Xrotation Yrotation Zrotation
						End Site
						{
							OFFSET	1	0	0
						}
					}
				}
			}
		}
	}
	JOINT right_hip
	{
		OFFSET	82.8	-127.5	0.300001
		CHANNELS 3  Xrotation Yrotation Zrotation
		JOINT right_knee
		{
			OFFSET	28.2	-396.7	2.2
			CHANNELS 3  Xrotation Yrotation Zrotation
			JOINT right_ankle
			{
				OFFSET	11.7	-411.3	35.4
				CHANNELS 3  Xrotation Yrotation Zrotation
				JOINT right_toes
				{
					OFFSET	0	-60	-88.6
					CHANNELS 3  Xrotation Yrotation Zrotation
					JOINT right_foot_ee
					{
						OFFSET	22.5	-16.5	-42.2
						CHANNELS 3  Xrotation Yrotation Zrotation
						End Site
						{
							OFFSET	1	0	0
						}
					}
				}
			}
		}
	}
}
MOTION
Frames: 12
Frame Time: 0.02
1934.32 673.974 -1533.7 8.57433 66.0452 -9.7967 -4.48506 1.05631 5.95859 -4.46557 0.67571 6.01346 -4.36003 -1.06183 5.95761 -4.4095 -0.109407 6.05018 -14.2838 16.8161 -9.88731 -15.3461 37.9843 -3.50068 -0.0 0.0 -0.0 -4.21297 24.2445 -2.8848 -15.3925 1.57982 71.9015 0.866888 -23.2399 0.178265 9.21837 0.232437 -1.15335 -0.0172601 26.4985 10.3671 -0.0 0.0 -0.0 13.0128 23.1853 -26.0081 23.3128 36.3236 -70.0229 3.16633 57.468 -1.73627 52.5071 1.15408 6.37552 0.139271 10.5115 3.52845 0.0 0.0 0.0 25.1768 20.8849 -16.8347 -2.16708 0.0831422 0.322161 8.72325 -15.3985 -1.35641 -32.414 0.0 0.0 -0.0 0.0 -0.0 -17.2364 35.1644 -0.236043 -24.8024 -0.207811 -3.77084 33.51 -22.0446 4.42826 32.7603 -0.0 -0.0 0.0 0.0 0.0 
1921.27 676.083 -1528.34 5.45447 65.9648 -6.196 -4.08808 1.06275 5.87757 -4.06914 0.687266 5.93301 -3.96618 -0.987103 5.8907 -4.01456 -0.0461168 5.97236 -12.6706 16.309 -11.9896 -13.2674 38.4537 -6.40967 -0.0 0.0 -0.0 -4.30248 24.306 -2.99193 -14.9567 1.14387 71.5434 0.842956 -22.664 0.168932 10.183 0.245964 -1.27583 -0.00214666 27.61 10.8464 -0.0 0.0 -0.0 12.9651 23.9384 -25.8228 22.0506 35.7685 -68.7692 3.07529 56.7063 -1.65984 52.2916 1.13771 6.35331 0.213507 10.788 3.1449 0.0 0.0 0.0 27.1161 20.0078 -17.6235 -4.80394 0.167769 0.717957 7.4142 -14.1655 -1.14805 -32.7985 0.0 0.0 -0.0 0.0 -0.0 -17.5482 38.1252 0.501133 -21.6526 -0.272341 -3.29186 32.5094 -21.9466 4.31832 30.6726 -0.0 -0.0 0.0 0.0 0.0 
1903.86 677.094 -1517.78 3.06308 66.5544 -3.11816 -3.78709 0.942964 5.47095 -3.77065 0.593466 5.51966 -3.68748 -0.935687 5.4722 -3.72923 -0.0610992 5.55104 -11.6714 16.1452 -12.1187 -12.0366 38.3218 -7.01868 -0.0 0.0 -0.0 -5.02024 24.9406 -3.80409 -14.3687 0.656077 72.5798 0.893641 -23.8779 0.188958 10.6614 0.251906 -1.33664 -0.0505171 28.8574 11.0168 -0.0 0.0 -0.0 12.8324 24.3868 -25.4691 21.3813 34.8258 -68.0539 2.93096 55.432 -1.54007 51.4005 1.07089 6.26079 0.376964 11.5324 2.35965 0.0 0.0 0.0 28.4859 19.587 -17.6349 -6.74517 0.218376 1.01156 5.71925 -12.4178 -0.880262 -33.3839 0.0 0.0 -0.0 0.0 -0.0 -17.9824 39.2397 0.936004 -20.0117 -0.295501 -3.04114 31.3463 -22.3575 4.1994 29.57 -0.0 -0.0 0.0 0.0 0.0 
1878.07 678.202 -1512.28 2.53634 67.6972 -1.87448 -3.72408 0.86572 5.15783 -3.70945 0.536215 5.2023 -3.638 -0.899566 5.15205 -3.67502 -0.0757666 5.22924 -9.51656 15.1422 -14.0501 -9.22406 37.9128 -10.1955 -0.0 0.0 -0.0 -5.04412 24.5311 -3.94371 -13.9305 0.842245 72.8448 0.83023 -22.3558 0.16406 10.6756 0.252075 -1.33845 -0.032266 28.969 11.1561 -0.0 0.0 -0.0 12.7897 25.1093 -25.2929 19.748 33.7934 -67.0826 2.77256 53.9318 -1.41082 51.8604 1.10519 6.30866 0.448661 12.0671 2.10515 0.0 0.0 0.0 29.303 19.2286 -17.7664 -10.5106 0.288047 1.58506 6.90684 -9.71215 -1.04153 -33.1849 0.0 0.0 -0.0 0.0 -0.0 -19.2164 40.4713 0.224446 -19.0001 -0.306196 -2.88631 31.5857 -20.2242 4.18331 29.5497 -0.0 -0.0 0.0 0.0 0.0 
1857.98 683.755 -1504.33 0.996882 68.1458 0.0632109 -3.4657 0.827741 4.90407 -3.45247 0.514396 4.94666 -3.38837 -0.829426 4.90379 -3.42191 -0.0455523 4.97306 -9.03055 14.852 -14.4869 -8.58574 37.7166 -10.9313 -0.0 0.0 -0.0 -5.21501 24.702 -4.13043 -12.998 0.668966 73.4606 0.802483 -21.679 0.153658 10.9156 0.254858 -1.36898 0.0701982 28.9754 11.7214 -0.0 0.0 -0.0 12.8645 25.7555 -25.3927 17.2847 32.9873 -65.8503 2.61303 52.3033 -1.2832 51.9035 1.10843 6.31314 0.600626 12.8006 1.39612 0.0 0.0 0.0 29.6504 19.0711 -17.6712 -12.2846 0.307777 1.85654 8.42303 -7.81115 -1.25083 -32.6838 0.0 0.0 -0.0 0.0 -0.0 -18.7587 41.3617 -0.417044 -19.5259 -0.300978 -2.96681 32.2823 -20.7036 4.26813 29.4494 -0.0 -0.0 0.0 0.0 0.0 
1837.18 685.999 -1500.12 0.369316 68.5626 1.48683 -3.27123 0.852678 4.70303 -3.2591 0.552031 4.74762 -3.19564 -0.723631 4.72456 -3.22677 0.0307212 4.77943 -8.63364 14.7465 -14.6757 -8.08491 37.6891 -11.3244 -0.0 0.0 -0.0 -5.62165 23.7358 -4.95342 -11.5115 -0.0335774 73.5547 0.79425 -21.477 0.15063 12.2722 0.268178 -1.54174 0.345154 28.967 13.2375 -0.0 0.0 -0.0 12.8399 26.2162 -25.2821 15.1668 32.2 -65.6687 2.48794 50.9365 -1.18514 51.9962 1.1154 6.32275 0.650127 13.4597 1.34687 0.0 0.0 0.0 29.497 18.9957 -17.8075 -13.5968 0.316958 2.05765 10.7017 -5.39323 -1.55876 -33.0341 0.0 0.0 -0.0 0.0 -0.0 -17.5977 42.0607 -1.37071 -22.6024 -0.255658 -3.43665 33.3846 -18.4652 4.3446 29.5616 -0.0 -0.0 0.0 0.0 0.0 
1812.7 694.059 -1493.45 -0.711899 68.8673 2.66622 -3.02597 0.857038 4.61427 -3.01431 0.562011 4.65932 -2.95225 -0.670778 4.64494 -2.98234 0.0703829 4.69249 -8.649 15.2186 -12.645 -8.30913 37.174 -9.09318 -0.0 0.0 -0.0 -5.96972 23.9169 -5.38582 -10.4881 -0.342966 73.6322 0.834254 -22.4534 0.165594 13.8033 0.278295 -1.73704 0.557699 29.2663 14.5131 -0.0 0.0 -0.0 12.7477 26.5386 -25.0314 11.3307 31.9434 -65.7058 2.32593 49.038 -1.06103 52.2746 1.13642 6.35155 0.624571 12.6624 1.17537 0.0 0.0 0.0 28.0752 18.5625 -17.1244 -14.613 0.320901 2.21351 12.5676 -7.67624 -1.83562 -32.3442 0.0 0.0 -0.0 0.0 -0.0 -16.2149 43.3773 -2.25134 -24.5143 -0.214807 -3.72718 31.6625 -19.3747 4.1765 29.0787 -0.0 -0.0 0.0 0.0 0.0 
1798.45 693.761 -1486.46 0.528984 69.7221 1.73386 -3.12042 0.760424 4.41871 -3.10969 0.477996 4.45804 -3.05744 -0.707729 4.42744 -3.08479 -0.000346339 4.48354 -10.0469 15.3534 -12.277 -10.0153 37.0767 -8.10363 -0.0 0.0 -0.0 -5.25468 23.7665 -4.43546 -9.12826 -0.320962 73.1319 0.811517 -21.9001 0.157011 13.7039 0.277797 -1.72435 0.518406 29.0613 14.2305 -0.0 0.0 -0.0 12.6702 26.2666 -24.8855 10.5631 30.4589 -65.2115 2.19855 47.4358 -0.966011 52.9106 1.18497 6.41697 0.55078 11.4423 1.14845 0.0 0.0 0.0 27.0452 18.1008 -16.4611 -15.1881 0.321909 2.30175 13.386 -5.17253 -1.92733 -32.9978 0.0 0.0 -0.0 0.0 -0.0 -15.2128 43.3805 -3.30466 -26.7018 -0.156198 -4.05776 33.8898 -14.9547 4.34553 28.6352 -0.0 -0.0 0.0 0.0 0.0 
1779.97 700.112 -1481.72 -0.088307 70.2663 2.67101 -3.07601 0.773564 4.36508 -3.06554 0.494512 4.40534 -3.01287 -0.674474 4.38145 -3.03965 0.0252519 4.43289 -9.77505 15.3889 -11.4277 -9.75244 36.5972 -7.34433 -0.0 0.0 -0.0 -4.98328 23.7612 -4.06111 -7.21535 -0.35615 71.9894 0.793341 -21.4546 0.150297 13.8358 0.278454 -1.74119 0.502648 28.8822 14.0864 -0.0 0.0 -0.0 12.7233 26.4163 -24.9899 9.38934 29.5341 -65.3014 1.98932 44.5752 -0.815447 53.4008 1.22289 6.46701 0.435364 10.1102 1.3568 0.0 0.0 0.0 25.7499 17.481 -15.7577 -15.7586 0.322032 2.38928 16.3925 -7.31472 -2.35103 -32.9542 0.0 0.0 -0.0 0.0 -0.0 -14.6044 43.8147 -3.88201 -28.5975 -0.0952244 -4.34229 33.6183 -14.192 4.30888 27.5617 -0.0 -0.0 0.0 0.0 0.0 
1767.92 703.598 -1480.42 -0.764791 71.0542 3.60692 -3.01099 0.679131 4.21735 -3.00119 0.409642 4.25193 -2.95752 -0.71233 4.21188 -2.98227 -0.0388349 4.2714 -7.09712 14.8642 -12.6635 -6.45116 36.6213 -9.83394 -0.0 0.0 -0.0 -5.59053 23.4667 -4.98505 -3.81291 -1.09027 71.9429 0.663925 -18.2055 0.106378 14.1847 0.280003 -1.78572 0.680081 29.2974 15.2049 -0.0 0.0 -0.0 12.9525 26.5147 -25.506 8.24512 28.9181 -65.3319 1.7785 41.3768 -0.671675 52.9153 1.18533 6.41744 0.384157 7.2544 0.485034 0.0 0.0 0.0 25.4603 16.9184 -15.4503 -16.9337 0.319541 2.56955 18.1052 -11.5503 -2.63369 -31.0795 0.0 0.0 -0.0 0.0 -0.0 -13.3442 44.0439 -4.58823 -29.2767 -0.0710885 -4.44373 36.2909 -15.3823 4.59078 25.4724 -0.0 -0.0 0.0 0.0 0.0 
1749.57 706.016 -1475.69 -0.548923 71.4272 3.50145 -2.74942 0.598173 4.12635 -2.74001 0.334623 4.15599 -2.70393 -0.741702 4.10302 -2.7274 -0.084985 4.16855 -6.13769 14.4272 -12.8715 -5.29744 36.0112 -10.5287 -0.0 0.0 -0.0 -5.78528 23.4623 -5.25906 -0.0069776 -1.71559 69.3687 0.727545 -19.8194 0.127105 14.448 0.280993 -1.81933 0.872685 29.0685 16.218 -0.0 0.0 -0.0 12.9053 26.8497 -25.3562 6.20637 27.4906 -65.5016 1.55541 37.6117 -0.52971 53.1037 1.19986 6.43672 0.0173273 3.84483 1.51093 0.0 0.0 0.0 24.2493 16.6949 -14.9732 -17.4606 0.317223 2.65036 19.0724 -12.603 -2.77886 -30.3738 0.0 0.0 -0.0 0.0 -0.0 -12.0476 43.9737 -5.31715 -30.0501 -0.0421441 -4.55889 36.8797 -13.8925 4.62828 24.093 -0.0 -0.0 0.0 0.0 0.0 
1732.89 710.76 -1473.37 1.55544 71.9567 1.59103 -2.70019 0.680121 4.1353 -2.69077 0.415837 4.17012 -2.64849 -0.662616 4.13814 -2.67238 -0.00135597 4.19076 -5.92321 13.977 -12.9591 -5.04958 35.2586 -10.7859 -0.0 0.0 -0.0 -5.41005 22.1145 -5.09992 4.08679 -2.53519 67.159 0.718833 -19.6003 0.124167 14.315 0.280512 -1.80236 0.924194 29.221 16.5525 -0.0 0.0 -0.0 12.8855 26.8082 -25.3156 4.34548 26.8588 -66.0564 1.39507 34.6455 -0.435142 53.149 1.20336 6.44135 -0.176187 1.08916 1.63952 0.0 0.0 0.0 21.5743 16.8645 -14.2963 -16.9414 0.319513 2.57073 21.0017 -14.8529 -3.07484 -29.9875 0.0 0.0 -0.0 0.0 -0.0 -10.4743 43.4339 -6.40284 -30.9181 -0.00780669 -4.68767 39.9845 -12.9656 4.90379 23.2986 -0.0 -0.0 0.0 0.0 0.0 
